<svg width="38" height="39" viewBox="0 0 38 39" fill="none" xmlns="http://www.w3.org/2000/svg">
<path d="M33.1217 31.2328L21.5763 12.2348V8.32874H23.365V9.21649L33.7721 26.3795V10.6369C33.3818 10.0687 33.0675 9.9267 32.959 9.9267H31.3329V8.32874H38V9.74915L36.3739 9.9267C35.8535 9.9267 35.615 10.3665 35.5608 10.5864V31.2328H33.1217Z" fill="#EB5939"/>
<path d="M7.88983 8.32874H0V9.71686L1.61017 9.89038C1.99661 10.0292 2.20057 10.4109 2.25424 10.5844V23.36C2.25424 30.2489 7.83616 31.4789 10.6271 31.2328C15.6186 30.7927 17.4972 27.6468 17.7119 25.3333V23.0776C14.9746 28.6301 11.7542 28.7738 9.98305 28.9473C5.79661 28.9473 5.47458 25.4059 5.47458 23.36V10.5844C5.47458 10.168 5.90395 9.94822 6.11864 9.89038L7.88983 9.71686V8.32874Z" fill="#EB5939"/>
<path d="M20.1441 5L22.5308 0H16.7573L19.1441 5H20.1441ZM19.1441 38V38.5H20.1441V38H19.1441ZM19.1441 4.5V38H20.1441V4.5H19.1441Z" fill="#EB5939"/>
</svg>
