<svg width="47" height="39" viewBox="0 0 47 39" fill="none" xmlns="http://www.w3.org/2000/svg">
<path d="M41.5454 30.9041L30 11.9061V8H31.7887V8.88776L42.1958 26.0507V10.3082C41.8056 9.74 41.4912 9.59796 41.3828 9.59796H39.7567V8H46.4237V9.42041L44.7976 9.59796C44.2773 9.59796 44.0388 10.0377 43.9846 10.2576V30.9041H41.5454Z" fill="#EB5939"/>
<path d="M7.88983 8H0V9.38813L1.61017 9.56164C1.99661 9.70046 2.20057 10.0822 2.25424 10.2557V23.0312C2.25424 29.9201 7.83616 31.1502 10.6271 30.9041C15.6186 30.464 17.4972 27.3181 17.7119 25.0046V22.7489C14.9746 28.3014 11.7542 28.4451 9.98305 28.6186C5.79661 28.6186 5.47458 25.0771 5.47458 23.0312V10.2557C5.47458 9.83927 5.90395 9.61948 6.11864 9.56164L7.88983 9.38813V8Z" fill="#EB5939"/>
<path d="M24.144 5L26.5308 0H20.7573L23.144 5H24.144ZM23.144 38V38.5H24.144V38H23.144ZM23.144 4.5V38H24.144V4.5H23.144Z" fill="#EB5939"/>
</svg>
